<svg width="200" height="150" viewBox="0 0 200 150" xmlns="http://www.w3.org/2000/svg">
  <defs>
    <linearGradient id="bgGradient" x1="0%" y1="0%" x2="100%" y2="100%">
      <stop offset="0%" style="stop-color:#1e3a8a;stop-opacity:1" />
      <stop offset="100%" style="stop-color:#06b6d4;stop-opacity:1" />
    </linearGradient>
    <linearGradient id="shieldGradient" x1="0%" y1="0%" x2="100%" y2="100%">
      <stop offset="0%" style="stop-color:#ffffff;stop-opacity:0.9" />
      <stop offset="100%" style="stop-color:#ffffff;stop-opacity:0.6" />
    </linearGradient>
  </defs>
  
  <!-- Background -->
  <rect width="200" height="150" fill="url(#bgGradient)" rx="12"/>
  
  <!-- Main shield -->
  <g transform="translate(100, 75)">
    <path d="M0 -40 L-25 -20 L-25 20 L0 40 L25 20 L25 -20 Z" 
          fill="url(#shieldGradient)" stroke="url(#shieldGradient)" stroke-width="2"/>
    
    <!-- Shield inner design -->
    <circle cx="0" cy="-5" r="15" fill="none" stroke="url(#shieldGradient)" stroke-width="2"/>
    <path d="M-8 -2 L-3 3 L8 -8" stroke="url(#shieldGradient)" stroke-width="3" fill="none" stroke-linecap="round"/>
  </g>
  
  <!-- Lock icons around shield -->
  <g transform="translate(50, 50)">
    <rect x="0" y="5" width="12" height="8" fill="url(#shieldGradient)" opacity="0.6"/>
    <rect x="3" y="0" width="6" height="6" fill="url(#shieldGradient)" opacity="0.8"/>
  </g>
  
  <g transform="translate(130, 45)">
    <rect x="0" y="5" width="12" height="8" fill="url(#shieldGradient)" opacity="0.6"/>
    <rect x="3" y="0" width="6" height="6" fill="url(#shieldGradient)" opacity="0.8"/>
  </g>
  
  <!-- Network nodes -->
  <g fill="url(#shieldGradient)" opacity="0.7">
    <circle cx="40" cy="30" r="3"/>
    <circle cx="160" cy="30" r="3"/>
    <circle cx="40" cy="120" r="3"/>
    <circle cx="160" cy="120" r="3"/>
  </g>
  
  <!-- Connection lines -->
  <g stroke="url(#shieldGradient)" stroke-width="1" opacity="0.4">
    <line x1="40" y1="30" x2="100" y2="75"/>
    <line x1="160" y1="30" x2="100" y2="75"/>
    <line x1="40" y1="120" x2="100" y2="75"/>
    <line x1="160" y1="120" x2="100" y2="75"/>
  </g>
</svg>
