<svg width="200" height="150" viewBox="0 0 200 150" xmlns="http://www.w3.org/2000/svg">
  <defs>
    <linearGradient id="bgGradient" x1="0%" y1="0%" x2="100%" y2="100%">
      <stop offset="0%" style="stop-color:#1e3a8a;stop-opacity:1" />
      <stop offset="100%" style="stop-color:#06b6d4;stop-opacity:1" />
    </linearGradient>
    <linearGradient id="consultGradient" x1="0%" y1="0%" x2="100%" y2="100%">
      <stop offset="0%" style="stop-color:#ffffff;stop-opacity:0.9" />
      <stop offset="100%" style="stop-color:#ffffff;stop-opacity:0.6" />
    </linearGradient>
  </defs>
  
  <!-- Background -->
  <rect width="200" height="150" fill="url(#bgGradient)" rx="12"/>
  
  <!-- Consultant figure -->
  <g transform="translate(100, 75)">
    <!-- Head -->
    <circle cx="0" cy="-15" r="8" fill="url(#consultGradient)" opacity="0.8"/>
    
    <!-- Body -->
    <rect x="-12" y="-5" width="24" height="20" fill="url(#consultGradient)" opacity="0.8" rx="3"/>
    
    <!-- Arms -->
    <rect x="-18" y="-3" width="6" height="16" fill="url(#consultGradient)" opacity="0.7" rx="3"/>
    <rect x="12" y="-3" width="6" height="16" fill="url(#consultGradient)" opacity="0.7" rx="3"/>
    
    <!-- Briefcase -->
    <rect x="15" y="5" width="12" height="8" fill="url(#consultGradient)" opacity="0.6" rx="1"/>
    <rect x="17" y="7" width="8" height="4" fill="url(#bgGradient)" opacity="0.3"/>
  </g>
  
  <!-- Presentation board -->
  <g transform="translate(40, 30)">
    <rect x="0" y="0" width="40" height="30" fill="url(#consultGradient)" opacity="0.7" rx="2"/>
    <rect x="5" y="5" width="30" height="20" fill="url(#bgGradient)" opacity="0.2"/>
    
    <!-- Chart on board -->
    <g stroke="url(#consultGradient)" stroke-width="1.5" fill="none" opacity="0.8">
      <line x1="10" y1="20" x2="15" y2="15"/>
      <line x1="15" y1="15" x2="20" y2="10"/>
      <line x1="20" y1="10" x2="25" y2="18"/>
      <line x1="25" y1="18" x2="30" y2="12"/>
    </g>
    
    <!-- Chart bars -->
    <rect x="12" y="18" width="2" height="4" fill="url(#consultGradient)" opacity="0.6"/>
    <rect x="17" y="13" width="2" height="9" fill="url(#consultGradient)" opacity="0.6"/>
    <rect x="22" y="8" width="2" height="14" fill="url(#consultGradient)" opacity="0.6"/>
    <rect x="27" y="16" width="2" height="6" fill="url(#consultGradient)" opacity="0.6"/>
  </g>
  
  <!-- Strategy icons -->
  <!-- Lightbulb -->
  <g transform="translate(120, 25)">
    <circle cx="8" cy="8" r="6" fill="url(#consultGradient)" opacity="0.6"/>
    <rect x="6" y="14" width="4" height="6" fill="url(#consultGradient)" opacity="0.6"/>
    <rect x="5" y="20" width="6" height="2" fill="url(#consultGradient)" opacity="0.6"/>
  </g>
  
  <!-- Gear -->
  <g transform="translate(140, 90)">
    <circle cx="8" cy="8" r="6" fill="none" stroke="url(#consultGradient)" stroke-width="1.5" opacity="0.7"/>
    <circle cx="8" cy="8" r="3" fill="url(#consultGradient)" opacity="0.5"/>
    <!-- Gear teeth -->
    <rect x="7" y="2" width="2" height="3" fill="url(#consultGradient)" opacity="0.6"/>
    <rect x="7" y="13" width="2" height="3" fill="url(#consultGradient)" opacity="0.6"/>
    <rect x="2" y="7" width="3" height="2" fill="url(#consultGradient)" opacity="0.6"/>
    <rect x="13" y="7" width="3" height="2" fill="url(#consultGradient)" opacity="0.6"/>
  </g>
  
  <!-- Document -->
  <g transform="translate(30, 100)">
    <rect x="0" y="0" width="20" height="25" fill="url(#consultGradient)" opacity="0.6" rx="1"/>
    <rect x="3" y="3" width="14" height="2" fill="url(#bgGradient)" opacity="0.3"/>
    <rect x="3" y="7" width="14" height="2" fill="url(#bgGradient)" opacity="0.3"/>
    <rect x="3" y="11" width="10" height="2" fill="url(#bgGradient)" opacity="0.3"/>
  </g>
  
  <!-- Network diagram -->
  <g transform="translate(150, 100)">
    <circle cx="5" cy="5" r="3" fill="url(#consultGradient)" opacity="0.6"/>
    <circle cx="15" cy="5" r="3" fill="url(#consultGradient)" opacity="0.6"/>
    <circle cx="5" cy="15" r="3" fill="url(#consultGradient)" opacity="0.6"/>
    <circle cx="15" cy="15" r="3" fill="url(#consultGradient)" opacity="0.6"/>
    <line x1="5" y1="5" x2="15" y2="5" stroke="url(#consultGradient)" stroke-width="1" opacity="0.5"/>
    <line x1="5" y1="5" x2="5" y2="15" stroke="url(#consultGradient)" stroke-width="1" opacity="0.5"/>
    <line x1="15" y1="5" x2="15" y2="15" stroke="url(#consultGradient)" stroke-width="1" opacity="0.5"/>
    <line x1="5" y1="15" x2="15" y2="15" stroke="url(#consultGradient)" stroke-width="1" opacity="0.5"/>
  </g>
</svg>
